<svg xmlns="http://www.w3.org/2000/svg" viewBox="0 0 300 210">
 <defs>
  <linearGradient id="gold" x1="0" y1="0" x2="1" y2="1"><stop stop-color="#8f682d"/><stop offset=".45" stop-color="#d4b264"/><stop offset=".7" stop-color="#f0d996"/><stop offset="1" stop-color="#a77c38"/></linearGradient>
  <filter id="glow"><feGaussianBlur stdDeviation=".7" result="b"/><feMerge><feMergeNode in="b"/><feMergeNode in="SourceGraphic"/></feMerge></filter>
 </defs>
 <style>
  .line{fill:none;stroke:url(#gold);stroke-linecap:round;stroke-linejoin:round;stroke-dasharray:900;stroke-dashoffset:900;animation:draw 2.2s 3s ease forwards}
  .fine{stroke-width:1.15}.main{stroke-width:2}.soft{opacity:.65}
  @keyframes draw{to{stroke-dashoffset:0}}
  @media(prefers-reduced-motion:reduce){.line{stroke-dashoffset:0;animation:none}}
 </style>
 <g class="line main" filter="url(#glow)">
  <path d="M150 47c-10 5-17 14-18 25-1 13 8 22 18 27 10-5 19-14 18-27-1-11-8-20-18-25Z"/>
  <path d="M150 47c-2-13 5-24 15-31-2 11 2 18 10 22-10-1-17 2-25 9Z"/>
  <path d="M140 65c5-4 13-4 18 0M147 74c2 2 4 2 6 0"/>
  <path d="M134 77C105 66 80 46 57 19c4 25 13 43 28 57-22-11-42-27-61-47 8 37 31 65 67 83-25-5-49-17-72-35 17 42 54 69 111 79"/>
  <path d="M166 77c29-11 54-31 77-58-4 25-13 43-28 57 22-11 42-27 61-47-8 37-31 65-67 83 25-5 49-17 72-35-17 42-54 69-111 79"/>
  <path d="M139 94c-8 22-6 43 11 62 17-19 19-40 11-62"/>
  <path d="M150 104v90M150 156c-18 16-29 33-30 50 13-10 23-20 30-31 7 11 17 21 30 31-1-17-12-34-30-50Z"/>
 </g>
 <g class="line fine">
  <path d="M129 84C104 80 83 67 63 47M124 94C91 90 62 73 37 48M119 106C82 104 54 91 31 70M115 119C82 120 57 113 37 99M112 132C84 136 63 134 46 129"/>
  <path d="M171 84c25-4 46-17 66-37M176 94c33-4 62-21 87-46M181 106c37-2 65-15 88-36M185 119c33 1 58-6 78-20M188 132c28 4 49 2 66-3"/>
  <path d="M132 101c-9 14-12 28-8 42M168 101c9 14 12 28 8 42M142 112c-3 15 0 29 8 42M158 112c3 15 0 29-8 42"/>
  <path d="M143 166c-10 11-15 21-16 31M157 166c10 11 15 21 16 31M150 176c-3 9-4 18-3 27"/>
 </g>
 <g class="line fine soft">
  <path d="M112 72 89 38M102 80 71 42M92 91 52 57M84 102 38 77M81 116 48 106"/>
  <path d="m188 72 23-34M198 80l31-38M208 91l40-34M216 102l46-25M219 116l33-10"/>
  <circle cx="144" cy="68" r="1.4" fill="#e8ca7d" stroke="none"/>
 </g>
</svg>
